REM DIRINDEX 1\2,1\3
REM DIRNAME cjc116,folder01,folder02
TITLE ""
FILE "Disc2Track06.mp3" MP3
  TRACK 01 AUDIO
    TITLE "0:"
    INDEX 01 00:00:00
  TRACK 02 AUDIO
    TITLE "3:cjc116_2254"
    INDEX 01 00:00:09
  TRACK 03 AUDIO
    TITLE "0:"
    INDEX 01 00:02:04
  TRACK 04 AUDIO
    TITLE "3:cjc116_2255"
    INDEX 01 00:02:55
  TRACK 05 AUDIO
    TITLE "0:"
    INDEX 01 00:03:68
  TRACK 06 AUDIO
    TITLE "2:cjc116_2256"
    INDEX 01 00:04:44
  TRACK 07 AUDIO
    TITLE "0:"
    INDEX 01 00:05:71
  TRACK 08 AUDIO
    TITLE "2:cjc116_2257"
    INDEX 01 00:06:37
  TRACK 09 AUDIO
    TITLE "0:"
    INDEX 01 00:07:70
  TRACK 10 AUDIO
    TITLE "2:cjc116_2258"
    INDEX 01 00:08:32
  TRACK 11 AUDIO
    TITLE "0:"
    INDEX 01 00:09:44
  TRACK 12 AUDIO
    TITLE "2:cjc116_2259"
    INDEX 01 00:10:08
  TRACK 13 AUDIO
    TITLE "0:"
    INDEX 01 00:11:37
  TRACK 14 AUDIO
    TITLE "2:cjc116_2260"
    INDEX 01 00:11:72
  TRACK 15 AUDIO
    TITLE "0:"
    INDEX 01 00:13:33
  TRACK 16 AUDIO
    TITLE "2:cjc116_2261"
    INDEX 01 00:14:00
  TRACK 17 AUDIO
    TITLE "0:"
    INDEX 01 00:15:46
  TRACK 18 AUDIO
    TITLE "2:cjc116_2262"
    INDEX 01 00:16:14
  TRACK 19 AUDIO
    TITLE "0:"
    INDEX 01 00:17:49
  TRACK 20 AUDIO
    TITLE "2:cjc116_2263"
    INDEX 01 00:18:25
  TRACK 21 AUDIO
    TITLE "0:"
    INDEX 01 00:20:61
  TRACK 22 AUDIO
    TITLE "2:cjc116_2264"
    INDEX 01 00:21:25
  TRACK 23 AUDIO
    TITLE "0:"
    INDEX 01 00:23:04
  TRACK 24 AUDIO
    TITLE "2:cjc116_2265"
    INDEX 01 00:23:42
  TRACK 25 AUDIO
    TITLE "0:"
    INDEX 01 00:25:13
  TRACK 26 AUDIO
    TITLE "2:cjc116_2266"
    INDEX 01 00:25:62
  TRACK 27 AUDIO
    TITLE "0:"
    INDEX 01 00:27:28
  TRACK 28 AUDIO
    TITLE "2:cjc116_2267"
    INDEX 01 00:27:73
  TRACK 29 AUDIO
    TITLE "0:"
    INDEX 01 00:29:34
  TRACK 30 AUDIO
    TITLE "2:cjc116_2268"
    INDEX 01 00:30:01
  TRACK 31 AUDIO
    TITLE "0:"
    INDEX 01 00:31:27
  TRACK 32 AUDIO
    TITLE "2:cjc116_2269"
    INDEX 01 00:31:73
  TRACK 33 AUDIO
    TITLE "0:"
    INDEX 01 00:33:13
  TRACK 34 AUDIO
    TITLE "2:cjc116_2270"
    INDEX 01 00:33:54
  TRACK 35 AUDIO
    TITLE "0:"
    INDEX 01 00:35:25
  TRACK 36 AUDIO
    TITLE "2:cjc116_2271"
    INDEX 01 00:35:64
  TRACK 37 AUDIO
    TITLE "0:"
    INDEX 01 00:37:22
  TRACK 38 AUDIO
    TITLE "2:cjc116_2272"
    INDEX 01 00:37:57
  TRACK 39 AUDIO
    TITLE "0:"
    INDEX 01 00:39:17
  TRACK 40 AUDIO
    TITLE "2:cjc116_2273"
    INDEX 01 00:39:62
  TRACK 41 AUDIO
    TITLE "0:"
    INDEX 01 00:41:45
  TRACK 42 AUDIO
    TITLE "2:cjc116_2274"
    INDEX 01 00:42:08
  TRACK 43 AUDIO
    TITLE "0:"
    INDEX 01 00:43:52
  TRACK 44 AUDIO
    TITLE "2:cjc116_2275"
    INDEX 01 00:44:14
  TRACK 45 AUDIO
    TITLE "0:"
    INDEX 01 00:45:37
  TRACK 46 AUDIO
    TITLE "2:cjc116_2276"
    INDEX 01 00:46:00
  TRACK 47 AUDIO
    TITLE "0:"
    INDEX 01 00:47:32
  TRACK 48 AUDIO
    TITLE "2:cjc116_2277"
    INDEX 01 00:48:04
  TRACK 49 AUDIO
    TITLE "0:"
    INDEX 01 00:49:31
  TRACK 50 AUDIO
    TITLE "2:cjc116_2278"
    INDEX 01 00:49:74
  TRACK 51 AUDIO
    TITLE "0:"
    INDEX 01 00:51:28
  TRACK 52 AUDIO
    TITLE "2:cjc116_2279"
    INDEX 01 00:52:00
  TRACK 53 AUDIO
    TITLE "0:"
    INDEX 01 00:53:49
  TRACK 54 AUDIO
    TITLE "2:cjc116_2280"
    INDEX 01 00:54:11
  TRACK 55 AUDIO
    TITLE "0:"
    INDEX 01 00:55:46
  TRACK 56 AUDIO
    TITLE "2:cjc116_2281"
    INDEX 01 00:56:16
  TRACK 57 AUDIO
    TITLE "0:"
    INDEX 01 00:58:13
  TRACK 58 AUDIO
    TITLE "2:cjc116_2282"
    INDEX 01 00:58:52
  TRACK 59 AUDIO
    TITLE "0:"
    INDEX 01 00:59:59
  TRACK 60 AUDIO
    TITLE "2:cjc116_2283"
    INDEX 01 01:00:31
  TRACK 61 AUDIO
    TITLE "0:"
    INDEX 01 01:01:70
  TRACK 62 AUDIO
    TITLE "2:cjc116_2284"
    INDEX 01 01:02:30
  TRACK 63 AUDIO
    TITLE "0:"
    INDEX 01 01:04:29
  TRACK 64 AUDIO
    TITLE "2:cjc116_2285"
    INDEX 01 01:04:72
  TRACK 65 AUDIO
    TITLE "0:"
    INDEX 01 01:06:40
  TRACK 66 AUDIO
    TITLE "2:cjc116_2286"
    INDEX 01 01:07:00
  TRACK 67 AUDIO
    TITLE "0:"
    INDEX 01 01:08:58
  TRACK 68 AUDIO
    TITLE "2:cjc116_2287"
    INDEX 01 01:09:28
  TRACK 69 AUDIO
    TITLE "0:"
    INDEX 01 01:11:13
  TRACK 70 AUDIO
    TITLE "2:cjc116_2288"
    INDEX 01 01:11:52
  TRACK 71 AUDIO
    TITLE "0:"
    INDEX 01 01:13:34
  TRACK 72 AUDIO
    TITLE "2:cjc116_2289"
    INDEX 01 01:13:73
  TRACK 73 AUDIO
    TITLE "0:"
    INDEX 01 01:15:52
  TRACK 74 AUDIO
    TITLE "2:cjc116_2290"
    INDEX 01 01:16:20
  TRACK 75 AUDIO
    TITLE "0:"
    INDEX 01 01:17:49
  TRACK 76 AUDIO
    TITLE "2:cjc116_2291"
    INDEX 01 01:18:13
  TRACK 77 AUDIO
    TITLE "0:"
    INDEX 01 01:20:10
  TRACK 78 AUDIO
    TITLE "2:cjc116_2292"
    INDEX 01 01:20:48
  TRACK 79 AUDIO
    TITLE "0:"
    INDEX 01 01:22:37
  TRACK 80 AUDIO
    TITLE "2:cjc116_2293"
    INDEX 01 01:23:05
  TRACK 81 AUDIO
    TITLE "0:"
    INDEX 01 01:24:41
  TRACK 82 AUDIO
    TITLE "2:cjc116_2294"
    INDEX 01 01:25:06
  TRACK 83 AUDIO
    TITLE "0:"
    INDEX 01 01:26:34
  TRACK 84 AUDIO
    TITLE "2:cjc116_2295"
    INDEX 01 01:27:08
  TRACK 85 AUDIO
    TITLE "0:"
    INDEX 01 01:28:22
  TRACK 86 AUDIO
    TITLE "2:cjc116_2296"
    INDEX 01 01:28:63
  TRACK 87 AUDIO
    TITLE "0:"
    INDEX 01 01:30:22
  TRACK 88 AUDIO
    TITLE "2:cjc116_2297"
    INDEX 01 01:30:71
  TRACK 89 AUDIO
    TITLE "0:"
    INDEX 01 01:32:25
  TRACK 90 AUDIO
    TITLE "2:cjc116_2298"
    INDEX 01 01:32:68
  TRACK 91 AUDIO
    TITLE "0:"
    INDEX 01 01:34:38
  TRACK 92 AUDIO
    TITLE "2:cjc116_2299"
    INDEX 01 01:35:04
  TRACK 93 AUDIO
    TITLE "0:"
    INDEX 01 01:36:37
  TRACK 94 AUDIO
    TITLE "2:cjc116_2300"
    INDEX 01 01:37:01
  TRACK 95 AUDIO
    TITLE "0:"
    INDEX 01 01:38:10
  TRACK 96 AUDIO
    TITLE "2:cjc116_2301"
    INDEX 01 01:38:53
  TRACK 97 AUDIO
    TITLE "0:"
    INDEX 01 01:39:64
  TRACK 98 AUDIO
    TITLE "2:cjc116_2302"
    INDEX 01 01:40:31
  TRACK 99 AUDIO
    TITLE "0:"
    INDEX 01 01:41:52
  TRACK 100 AUDIO
    TITLE "2:cjc116_2303"
    INDEX 01 01:42:18
  TRACK 101 AUDIO
    TITLE "0:"
    INDEX 01 01:43:47
  TRACK 102 AUDIO
    TITLE "2:cjc116_2304"
    INDEX 01 01:44:11
  TRACK 103 AUDIO
    TITLE "0:"
    INDEX 01 01:45:28
  TRACK 104 AUDIO
    TITLE "2:cjc116_2305"
    INDEX 01 01:45:69
  TRACK 105 AUDIO
    TITLE "0:"
    INDEX 01 01:47:40
  TRACK 106 AUDIO
    TITLE "2:cjc116_2306"
    INDEX 01 01:48:05
  TRACK 107 AUDIO
    TITLE "0:"
    INDEX 01 01:49:28
  TRACK 108 AUDIO
    TITLE "2:cjc116_2307"
    INDEX 01 01:50:00
  TRACK 109 AUDIO
    TITLE "0:"
    INDEX 01 01:51:30
  TRACK 110 AUDIO
    TITLE "2:cjc116_2308"
    INDEX 01 01:51:66
  TRACK 111 AUDIO
    TITLE "0:"
    INDEX 01 01:53:21
  TRACK 112 AUDIO
    TITLE "2:cjc116_2309"
    INDEX 01 01:53:74
  TRACK 113 AUDIO
    TITLE "0:"
    INDEX 01 01:55:46
  TRACK 114 AUDIO
    TITLE "2:cjc116_2310"
    INDEX 01 01:56:08
  TRACK 115 AUDIO
    TITLE "0:"
    INDEX 01 01:57:70
  TRACK 116 AUDIO
    TITLE "2:cjc116_2311"
    INDEX 01 01:58:36
  TRACK 117 AUDIO
    TITLE "0:"
    INDEX 01 02:00:25
  TRACK 118 AUDIO
    TITLE "2:cjc116_2312"
    INDEX 01 02:00:61
  TRACK 119 AUDIO
    TITLE "0:"
    INDEX 01 02:02:73
  TRACK 120 AUDIO
    TITLE "2:cjc116_2313"
    INDEX 01 02:03:41
  TRACK 121 AUDIO
    TITLE "0:"
    INDEX 01 02:05:50
  TRACK 122 AUDIO
    TITLE "2:cjc116_2314"
    INDEX 01 02:06:14
  TRACK 123 AUDIO
    TITLE "0:"
    INDEX 01 02:07:37
  TRACK 124 AUDIO
    TITLE "2:cjc116_2315"
    INDEX 01 02:08:11
  TRACK 125 AUDIO
    TITLE "0:"
    INDEX 01 02:09:40
  TRACK 126 AUDIO
    TITLE "2:cjc116_2316"
    INDEX 01 02:10:04
  TRACK 127 AUDIO
    TITLE "0:"
    INDEX 01 02:11:41
  TRACK 128 AUDIO
    TITLE "2:cjc116_2317"
    INDEX 01 02:12:07
  TRACK 129 AUDIO
    TITLE "0:"
    INDEX 01 02:13:34
  TRACK 130 AUDIO
    TITLE "2:cjc116_2318"
    INDEX 01 02:13:71
  TRACK 131 AUDIO
    TITLE "0:"
    INDEX 01 02:15:58
  TRACK 132 AUDIO
    TITLE "2:cjc116_2319"
    INDEX 01 02:16:26
  TRACK 133 AUDIO
    TITLE "0:"
    INDEX 01 02:17:65
  TRACK 134 AUDIO
    TITLE "2:cjc116_2320"
    INDEX 01 02:18:29
  TRACK 135 AUDIO
    TITLE "0:"
    INDEX 01 02:20:14
  TRACK 136 AUDIO
    TITLE "2:cjc116_2321"
    INDEX 01 02:20:61
  TRACK 137 AUDIO
    TITLE "0:"
    INDEX 01 02:23:17
  TRACK 138 AUDIO
    TITLE "2:cjc116_2322"
    INDEX 01 02:23:52
  TRACK 139 AUDIO
    TITLE "0:"
    INDEX 01 02:25:04
  TRACK 140 AUDIO
    TITLE "2:cjc116_2323"
    INDEX 01 02:25:43
  TRACK 141 AUDIO
    TITLE "0:"
    INDEX 01 02:26:62
  TRACK 142 AUDIO
    TITLE "2:cjc116_2324"
    INDEX 01 02:27:28
  TRACK 143 AUDIO
    TITLE "0:"
    INDEX 01 02:30:38
  TRACK 144 AUDIO
    TITLE "2:cjc116_2325"
    INDEX 01 02:31:08
  TRACK 145 AUDIO
    TITLE "0:"
    INDEX 01 02:32:10
  TRACK 146 AUDIO
    TITLE "2:cjc116_2326"
    INDEX 01 02:32:51
  TRACK 147 AUDIO
    TITLE "0:"
    INDEX 01 02:34:34
  TRACK 148 AUDIO
    TITLE "2:cjc116_2327"
    INDEX 01 02:35:02
  TRACK 149 AUDIO
    TITLE "0:"
    INDEX 01 02:36:53
  TRACK 150 AUDIO
    TITLE "2:cjc116_2328"
    INDEX 01 02:37:13
  TRACK 151 AUDIO
    TITLE "0:"
    INDEX 01 02:38:67
  TRACK 152 AUDIO
    TITLE "2:cjc116_2329"
    INDEX 01 02:39:35
  TRACK 153 AUDIO
    TITLE "0:"
    INDEX 01 02:41:01
  TRACK 154 AUDIO
    TITLE "2:cjc116_2330"
    INDEX 01 02:41:38
  TRACK 155 AUDIO
    TITLE "0:"
    INDEX 01 02:42:45
  TRACK 156 AUDIO
    TITLE "2:cjc116_2331"
    INDEX 01 02:43:17
  TRACK 157 AUDIO
    TITLE "0:"
    INDEX 01 02:44:40
  TRACK 158 AUDIO
    TITLE "2:cjc116_2332"
    INDEX 01 02:45:07
  TRACK 159 AUDIO
    TITLE "0:"
    INDEX 01 02:46:61
  TRACK 160 AUDIO
    TITLE "2:cjc116_2333"
    INDEX 01 02:47:33
  TRACK 161 AUDIO
    TITLE "0:"
    INDEX 01 02:48:38
  TRACK 162 AUDIO
    TITLE "2:cjc116_2334"
    INDEX 01 02:49:00
  TRACK 163 AUDIO
    TITLE "0:"
    INDEX 01 02:50:37
  TRACK 164 AUDIO
    TITLE "2:cjc116_2335"
    INDEX 01 02:51:03
  TRACK 165 AUDIO
    TITLE "0:"
    INDEX 01 02:52:52
  TRACK 166 AUDIO
    TITLE "2:cjc116_2336"
    INDEX 01 02:53:14
  TRACK 167 AUDIO
    TITLE "0:"
    INDEX 01 02:54:51
  TRACK 168 AUDIO
    TITLE "2:cjc116_2337"
    INDEX 01 02:55:17
  TRACK 169 AUDIO
    TITLE "0:"
    INDEX 01 02:57:02
  TRACK 170 AUDIO
    TITLE "2:cjc116_2338"
    INDEX 01 02:57:43
  TRACK 171 AUDIO
    TITLE "0:"
    INDEX 01 02:59:07
  TRACK 172 AUDIO
    TITLE "2:cjc116_2339"
    INDEX 01 02:59:46
  TRACK 173 AUDIO
    TITLE "0:"
    INDEX 01 03:01:41
  TRACK 174 AUDIO
    TITLE "2:cjc116_2340"
    INDEX 01 03:02:01
  TRACK 175 AUDIO
    TITLE "0:"
    INDEX 01 03:03:51
  TRACK 176 AUDIO
    TITLE "2:cjc116_2341"
    INDEX 01 03:04:24
  TRACK 177 AUDIO
    TITLE "0:"
    INDEX 01 03:05:70
  TRACK 178 AUDIO
    TITLE "2:cjc116_2342"
    INDEX 01 03:06:32
  TRACK 179 AUDIO
    TITLE "0:"
    INDEX 01 03:08:04
  TRACK 180 AUDIO
    TITLE "2:cjc116_2343"
    INDEX 01 03:08:35
  TRACK 181 AUDIO
    TITLE "0:"
    INDEX 01 03:10:50
  TRACK 182 AUDIO
    TITLE "3:cjc116_2344"
    INDEX 01 03:12:23
  TRACK 183 AUDIO
    TITLE "0:"
    INDEX 01 03:13:26
  TRACK 184 AUDIO
    TITLE "2:cjc116_2345"
    INDEX 01 03:13:71
  TRACK 185 AUDIO
    TITLE "0:"
    INDEX 01 03:15:43
  TRACK 186 AUDIO
    TITLE "2:cjc116_2346"
    INDEX 01 03:16:15
  TRACK 187 AUDIO
    TITLE "0:"
    INDEX 01 03:17:57
  TRACK 188 AUDIO
    TITLE "2:cjc116_2347"
    INDEX 01 03:18:14
  TRACK 189 AUDIO
    TITLE "0:"
    INDEX 01 03:19:58
  TRACK 190 AUDIO
    TITLE "2:cjc116_2348"
    INDEX 01 03:20:26
  TRACK 191 AUDIO
    TITLE "0:"
    INDEX 01 03:21:71
  TRACK 192 AUDIO
    TITLE "2:cjc116_2349"
    INDEX 01 03:22:27
  TRACK 193 AUDIO
    TITLE "0:"
    INDEX 01 03:23:52
  TRACK 194 AUDIO
    TITLE "2:cjc116_2350"
    INDEX 01 03:24:24
  TRACK 195 AUDIO
    TITLE "0:"
    INDEX 01 03:25:43
  TRACK 196 AUDIO
    TITLE "2:cjc116_2351"
    INDEX 01 03:26:09
  TRACK 197 AUDIO
    TITLE "0:"
    INDEX 01 03:27:52
  TRACK 198 AUDIO
    TITLE "2:cjc116_2352"
    INDEX 01 03:28:12
  TRACK 199 AUDIO
    TITLE "0:"
    INDEX 01 03:29:61
  TRACK 200 AUDIO
    TITLE "2:cjc116_2353"
    INDEX 01 03:30:25
  TRACK 201 AUDIO
    TITLE "0:"
    INDEX 01 03:32:08
  TRACK 202 AUDIO
    TITLE "2:cjc116_2354"
    INDEX 01 03:32:45
  TRACK 203 AUDIO
    TITLE "0:"
    INDEX 01 03:34:46
  TRACK 204 AUDIO
    TITLE "2:cjc116_2355"
    INDEX 01 03:35:10
  TRACK 205 AUDIO
    TITLE "0:"
    INDEX 01 03:36:53
  TRACK 206 AUDIO
    TITLE "2:cjc116_2356"
    INDEX 01 03:37:19
  TRACK 207 AUDIO
    TITLE "0:"
    INDEX 01 03:39:22
  TRACK 208 AUDIO
    TITLE "2:cjc116_2357"
    INDEX 01 03:39:61
  TRACK 209 AUDIO
    TITLE "0:"
    INDEX 01 03:41:19
  TRACK 210 AUDIO
    TITLE "2:cjc116_2358"
    INDEX 01 03:41:60
  TRACK 211 AUDIO
    TITLE "0:"
    INDEX 01 03:43:35
  TRACK 212 AUDIO
    TITLE "2:cjc116_2359"
    INDEX 01 03:43:73
  TRACK 213 AUDIO
    TITLE "0:"
    INDEX 01 03:45:22
  TRACK 214 AUDIO
    TITLE "2:cjc116_2360"
    INDEX 01 03:45:64
  TRACK 215 AUDIO
    TITLE "0:"
    INDEX 01 03:47:14
  TRACK 216 AUDIO
    TITLE "2:cjc116_2361"
    INDEX 01 03:47:49
  TRACK 217 AUDIO
    TITLE "0:"
    INDEX 01 03:49:40
  TRACK 218 AUDIO
    TITLE "2:cjc116_2362"
    INDEX 01 03:50:08
  TRACK 219 AUDIO
    TITLE "0:"
    INDEX 01 03:51:37
  TRACK 220 AUDIO
    TITLE "2:cjc116_2363"
    INDEX 01 03:52:01
  TRACK 221 AUDIO
    TITLE "0:"
    INDEX 01 03:53:04
  TRACK 222 AUDIO
    TITLE "2:cjc116_2364"
    INDEX 01 03:53:47
  TRACK 223 AUDIO
    TITLE "0:"
    INDEX 01 03:54:55
  TRACK 224 AUDIO
    TITLE "2:cjc116_2365"
    INDEX 01 03:55:21
  TRACK 225 AUDIO
    TITLE "0:"
    INDEX 01 03:57:32
  TRACK 226 AUDIO
    TITLE "2:cjc116_2366"
    INDEX 01 03:58:04
  TRACK 227 AUDIO
    TITLE "0:"
    INDEX 01 03:59:52
  TRACK 228 AUDIO
    TITLE "2:cjc116_2367"
    INDEX 01 04:00:16
  TRACK 229 AUDIO
    TITLE "0:"
    INDEX 01 04:02:19
  TRACK 230 AUDIO
    TITLE "2:cjc116_2368"
    INDEX 01 04:02:62
  TRACK 231 AUDIO
    TITLE "0:"
    INDEX 01 04:04:61
  TRACK 232 AUDIO
    TITLE "2:cjc116_2369"
    INDEX 01 04:05:23
  TRACK 233 AUDIO
    TITLE "0:"
    INDEX 01 04:07:06
  TRACK 234 AUDIO
    TITLE "2:cjc116_2370"
    INDEX 01 04:07:44
  TRACK 235 AUDIO
    TITLE "0:"
    INDEX 01 04:09:52
  TRACK 236 AUDIO
    TITLE "2:cjc116_2371"
    INDEX 01 04:10:15
  TRACK 237 AUDIO
    TITLE "0:"
    INDEX 01 04:12:06
  TRACK 238 AUDIO
    TITLE "2:cjc116_2372"
    INDEX 01 04:12:47
  TRACK 239 AUDIO
    TITLE "0:"
    INDEX 01 04:14:34
  TRACK 240 AUDIO
    TITLE "2:cjc116_2373"
    INDEX 01 04:14:71
  TRACK 241 AUDIO
    TITLE "0:"
    INDEX 01 04:16:56
  TRACK 242 AUDIO
    TITLE "2:cjc116_2374"
    INDEX 01 04:17:28
  TRACK 243 AUDIO
    TITLE "0:"
    INDEX 01 04:19:29
  TRACK 244 AUDIO
    TITLE "2:cjc116_2375"
    INDEX 01 04:19:64
  TRACK 245 AUDIO
    TITLE "0:"
    INDEX 01 04:21:61
  TRACK 246 AUDIO
    TITLE "2:cjc116_2376"
    INDEX 01 04:22:33
  TRACK 247 AUDIO
    TITLE "0:"
    INDEX 01 04:25:14
  TRACK 248 AUDIO
    TITLE "2:cjc116_2377"
    INDEX 01 04:25:53
  TRACK 249 AUDIO
    TITLE "0:"
    INDEX 01 04:27:29
  TRACK 250 AUDIO
    TITLE "2:cjc116_2378"
    INDEX 01 04:27:74
  TRACK 251 AUDIO
    TITLE "0:"
    INDEX 01 04:29:22
  TRACK 252 AUDIO
    TITLE "2:cjc116_2379"
    INDEX 01 04:29:59
  TRACK 253 AUDIO
    TITLE "0:"
    INDEX 01 04:31:17
  TRACK 254 AUDIO
    TITLE "2:cjc116_2380"
    INDEX 01 04:31:66
  TRACK 255 AUDIO
    TITLE "0:"
    INDEX 01 04:33:02
  TRACK 256 AUDIO
    TITLE "2:cjc116_2381"
    INDEX 01 04:33:39
  TRACK 257 AUDIO
    TITLE "0:"
    INDEX 01 04:35:11
  TRACK 258 AUDIO
    TITLE "2:cjc116_2382"
    INDEX 01 04:35:56
  TRACK 259 AUDIO
    TITLE "0:"
    INDEX 01 04:37:08
  TRACK 260 AUDIO
    TITLE "2:cjc116_2383"
    INDEX 01 04:37:43
  TRACK 261 AUDIO
    TITLE "0:"
    INDEX 01 04:39:16
  TRACK 262 AUDIO
    TITLE "2:cjc116_2384"
    INDEX 01 04:39:57
  TRACK 263 AUDIO
    TITLE "0:"
    INDEX 01 04:41:19
  TRACK 264 AUDIO
    TITLE "2:cjc116_2385"
    INDEX 01 04:41:54
  TRACK 265 AUDIO
    TITLE "0:"
    INDEX 01 04:43:26
  TRACK 266 AUDIO
    TITLE "2:cjc116_2386"
    INDEX 01 04:43:65
  TRACK 267 AUDIO
    TITLE "0:"
    INDEX 01 04:45:58
